Hanna 2011 CAM XVID LKRG

Format;AVI

File Size:1.2gb

Video
ID : 0
Format : MPEG-4 Visual
Format profile : Advanced Simple@L5
Format settings, BVOP : Yes
Format settings, QPel : No
Format settings, GMC : No warppoints
Format settings, Matrix : Custom
Codec ID : XVID
Codec ID/Hint : XviD
Duration : 1h 43mn
Bit rate : 1 575 Kbps
Width : 680 pixels
Height : 294 pixels
Display aspect ratio : 2.35:1
Frame rate : 23.976 fps
Color space : YUV
Chroma subsampling : 4:2:0
Bit depth : 8 bits
Scan type : Progressive
Bits/(Pixel*Frame) : 0.329
Stream size : 1.14 GiB (92%)
Writing library : XviD 1.2.1 (UTC 2008-12-04)

Audio
ID : 1
Format : MPEG Audio
Format version : Version 1
Format profile : Layer 3
Codec ID : 55
Codec ID/Hint : MP3
Duration : 1h 43mn
Bit rate mode : Constant
Bit rate : 128 Kbps
Channel(s) : 2 channels
Sampling rate : 44.1 KHz
Stream size : 94.7 MiB (7%)
Alignment : Split accross interleaves
Interleave, duration : 500 ms (11.98 video frames)
Interleave, preload duration : 500 ms

Release Notes:Video:Own

Audio:Own

Alright here we go with the first cam for hanna, video had small issues here and there nothing major slight out of focus issue occasionally and a head pops n for about

10 seconds about an hour in other then that all good.Usual video filters rgb,slight sharpen crop denoise came out pretty good.

On to aduio not bad at all you hear is an occasionall audience laughter here and there no biggie cleaned up audio slightly removed a light hiss thats about it.

All in all very watchable first cam remeber to d/l sample before the actual file.

 
http://www.imdb.com/title/tt0993842/


Duration:1:43

Release Date:2011

Language:English


Screens:

 
http://leetleech.org/images/40422198921441981290.jpg
 
http://leetleech.org/images/08620475484912008763.jpg
 
http://leetleech.org/images/66578294123188932194.jpg


ENJOY!